/* XPM */
static char *pixil_frame_0__3_1690634906[] = {
/* columns rows colors chars-per-pixel */
"64 64 8 1 ",
"  c #633B03",
". c #4A5462",
"X c #9E6106",
"o c #EDA705",
"O c yellow",
"+ c #6D758D",
"@ c #8B93AF",
"# c #FFF8E1",
/* pixels */
"................................................................",
"................................................................",
"................................................................",
"..++..@@@@@@@@@@@@@@@@@@@@@@@@@@@@@@@++..++@@@@@@@@@@@@@@@@@@@@.",
"..++..@@@@@@@@@@@@@@@@oooOOOOOOOOOOOOooooooo@@@@@@@@@@@@@@@@@@@.",
"..++..++++++++++++++++oooOOOOOOOOOOOOooooooo+++++++++++++++++++.",
"..++..++++++++++++++++oooOOOOOOOOOOOOooooooo+++++++++++++++++++.",
"......................oooOOOOOOOOOOOOooooooo....................",
"..............ooooOOOO######################OOOOoooo............",
"..@@@@@@@@@@@@ooooOOOO######################OOOOoooo@@@@@++..++.",
"..@@@@@@@@@@@@ooooOOOO######################OOOOoooo@@@@@++..++.",
"..++++++++oooo########OOOooooooooXXXXoooooooOOOOOOOOooo++++..++.",
"..++++++++oooo########OOOooooooooXXXXoooooooOOOOOOOOooo++++..++.",
"..........oooo########OOOooooooooXXXXoooooooOOOOOOOOooo.........",
"..........oooo########OOOooooooooXXXXoooooooOOOOOOOOooo.........",
".......XXXOOOO####ooooXXX...............    ooooOOOOooo.........",
"..@@@@@XXXOOOO####ooooXXX@@@@@@@@@@@@@@@    ooooOOOOooo@@@@@@@@.",
"..@@@@@XXXOOOO####ooooXXX@@@@@@@@@@@@@@@    ooooOOOOooo@@@@@@@@.",
"..+++++XXXOOOO####ooooXXX+++++++++++++++    ooooOOOOooo++++++++.",
"..+++++ooo####OOOO    ++++++++++++++++++++++    ooooOOOoooo++++.",
".......ooo####OOOO    ......................    ooooOOOoooo.....",
".......ooo####OOOO    ......................    ooooOOOoooo.....",
"..@XXXXoooOOOOoooo@@@@@@++++..@@@@@@@@@@@@@@@@@@ooooOOOoooo..++.",
"..@XXXXoooOOOOoooo@@@@@@++++..@@@@@@@@@@@@@@@@@@ooooOOOoooo..++.",
"..+XXXXoooOOOOoooo++++++++++..++++++++++++++++++ooooOOOoooo..++.",
"..+XXXXoooOOOOoooo++++++++++..++++++++++++++++++ooooOOOoooo..++.",
"..+XXXXoooOOOO++++++++++++++..++++++++++++++++++XXXXOOOooooXXXX.",
"...XXXXoooOOOO..................................XXXXOOOooooXXXX.",
"...XXXXoooOOOO..................................XXXXOOOooooXXXX.",
"..@XXXXoooOOOO@@@@@@@@@@@@@@@@@@@@@@@@@..++@@@@@XXXXOOOooooXXXX.",
"..@XXXXOOOoooo@@@@@@@@@@@@@@@@@@@@@@@@@..++@@@@@@@@@oooOOOOXXXX.",
"..+XXXXOOOoooo+++++++++++++++++++++++++..+++++++++++oooOOOOXXXX.",
"..+XXXXOOOoooo+++++++++++++++++++++++++..+++++++++++oooOOOOXXXX.",
"...XXXXOOOoooo......................................oooOOOO    .",
"...XXXXOOOoooo......................................oooOOOO    .",
"..@XXXXOOOoooo@@@@++..++@@@@@@@@@@@@@@@@@@@@@@@..+++oooOOOO    .",
"..@XXXXOOOoooo@@@@++..++@@@@@@@@@@@@@@@@@@@@@@@..+++oooOOOO    .",
"..@    oooOOOO@@@@++..++@@@@@@@@@@@@@@@@@@@@@@@.oooo###oooo    .",
"..+    oooOOOO++++++..+++++++++++++++++++++++++.oooo###oooo    .",
"..+    oooOOOO++++++..+++++++++++++++++++++++++.oooo###oooo    .",
"...    oooOOOO..................................oooo###oooo    .",
"...    XXXOOOOOOOO..............................OOOO###XXXX.....",
"..@    XXXOOOOOOOO@@@@@@@@@@@@@@...++@@@@@@@@@@@OOOO###XXXX++@@.",
"..@    XXXOOOOOOOO@@@@@@@@@@@@@@...++@@@@@@@@@@@OOOO###XXXX++@@.",
"..+    XXXOOOOOOOO++++++++++++++...+++++++++++++OOOO###XXXX++++.",
"..++++.XXXooooOOOOOOOO++++++++++...+++++++++OOOO####ooo    ++++.",
".......XXXooooOOOOOOOO......................OOOO####ooo    .....",
".......XXXooooOOOOOOOO......................OOOO####ooo    .....",
"..@@@@@   XXXXoooo####OOO.@@@@@@@@@@@@@@########OOOOXXX    @@@@.",
"..@@@@@   XXXXoooo####OOO.@@@@@@@@@@@@@@########OOOOXXX    @@@@.",
"..@@@@@   XXXXoooo####OOO.@@@@@@@@@@@@@@########OOOOXXX    @@@@.",
"..+++++   XXXXoooo####OOO.++++++++++++++########OOOOXXX    ++++.",
"..++++++++    XXXXooooOOO###############++++ooooXXXX   ++++++++.",
"..........    XXXXooooOOO###############....ooooXXXX   .........",
"..........    XXXXooooOOO###############....ooooXXXX   .........",
"....@@@@@@    XXXXooooOOO###############@@@@ooooXXXX   @@@@@@@@.",
"....@@@@@@@@@@        XXXXXXXoooooooooooXXXX        .++@@@@@@@@.",
"....++++++++++        XXXXXXXoooooooooooXXXX        .++++++++++.",
"....++++++++++        XXXXXXXoooooooooooXXXX        .++++++++++.",
"......................                      ....................",
"......................                      ....................",
"......................                      ....................",
"..@@@@@@++..@@@@@@@@@@                      @@@@@@@@@@@@@@@@@@@.",
"..@@@@@@++..@@@@@@@@@@@@@@@@@@@@@@@@@++..++@@@@@@@@@@@@@@@@@@@@."
};
