/* XPM */
static char *pixil_frame_0__2_1690634743[] = {
/* columns rows colors chars-per-pixel */
"64 64 5 1 ",
"  c black",
". c #37474F",
"X c #008000",
"o c #4CAF50",
"O c #CDDC39",
/* pixels */
"..........................OOOOoooooooooooooooooooooooooooooo....",
"..........................OOOOoooooooooooooooooooooooooooooo....",
"..........................OOOOoooooooooooooooooooooooooooooo....",
".......                   OOOOoooooooXXXXXXXXooooooooooooooo....",
".......                   OOOOoooooooXXXXXXXXooooooooooooooo....",
".......                   OOOOoooooooXXXXooooXXXXXXXXooooooo....",
".......                   OOOOoooooooXXXXooooXXXXXXXXooooooo....",
".......                   OOOOoooooooXXXXooooXXXXooooOOOoooo....",
".......                   OOOOoooooooXXXXooooXXXXooooOOOoooo....",
".......                   OOOOoooooooXXXXooooXXXXooooOOOoooo....",
".......                   OOOOoooooooXXXXooooXXXXooooOOOoooo....",
".......                   OOOOoooooooXXXXooooXXXXooooOOOOOOO....",
".......                   OOOOoooooooXXXXooooXXXXooooOOOOOOO....",
".......                   OOOOoooooooXXXXooooXXXXooooOOOXXXX....",
".......                   OOOOoooooooXXXXooooXXXXooooOOOXXXX....",
".......                   OOOOoooooooXXXXooooXXXXooooOOOXXXX....",
".......                   OOOOoooooooXXXXooooXXXXooooOOOXXXX....",
".......                   OOOOoooooooXXXXooooXXXXooooOOOXXXX....",
".......                   OOOOoooooooXXXXooooXXXXooooOOOXXXX....",
".......                   OOOOoooooooXXXXooooXXXXooooOOOoooo....",
".......                   OOOOoooooooXXXXooooXXXXooooOOOoooo....",
".......                   OOOOoooooooXXXXooooXXXXooooOOOoooo....",
".......                   OOOOoooooooXXXXooooXXXXooooOOOoooo....",
".......                   OOOOoooooooXXXXooooXXXXooooOOOoooo....",
".......                   OOOOoooooooXXXXooooXXXXooooOOOoooo....",
".......                   OOOOoooooooooooOOOOOOOOooooOOOoooo....",
".......                   OOOOoooooooooooOOOOOOOOooooOOOoooo....",
".......                   OOOOoooooooooooooooooooOOOOOOOoooo....",
".......                   OOOOoooooooooooooooooooOOOOOOOoooo....",
".......                   OOOOoooooooooooooooooooooooooooooo....",
".......                   OOOOoooooooooooooooooooooooooooooo....",
".......                   OOOOoooooooooooooooooooooooooooooo....",
".......                   OOOOoooooooooooooooooooooooooooooo....",
".......                   OOOOoooooooooooooooooooooooooooooo....",
".......                   OOOOoooooooooooooooooooooooooooooo....",
".......                   OOOOoooooooooooooooooooooooooooooo....",
".......                   OOOOoooooooooooooooooooooooooooooo....",
".......                   OOOOoooooooooooooooooooXXXXOOOoooo....",
".......                   OOOOoooooooooooooooooooXXXXOOOoooo....",
".......                   OOOOoooooooooooXXXXXXXXooooOOOoooo....",
".......                   OOOOoooooooooooXXXXXXXXooooOOOoooo....",
".......                   OOOOoooooooXXXXooooXXXXooooOOOoooo....",
".......                   OOOOoooooooXXXXooooXXXXooooOOOoooo....",
".......                   OOOOoooooooXXXXooooXXXXooooOOOoooo....",
".......                   OOOOoooooooXXXXooooXXXXooooOOOoooo....",
".......                   OOOOoooooooXXXXooooXXXXooooOOOoooo....",
".......                   OOOOoooooooXXXXooooXXXXooooOOOoooo....",
".......                   OOOOoooooooXXXXooooXXXXooooOOOOOOO....",
".......                   OOOOoooooooXXXXooooXXXXooooOOOOOOO....",
".......                   OOOOoooooooXXXXooooXXXXooooOOOXXXX....",
".......                   OOOOoooooooXXXXooooXXXXooooOOOXXXX....",
".......                   OOOOoooooooXXXXooooXXXXooooOOOXXXX....",
".......                   OOOOoooooooXXXXooooXXXXooooOOOXXXX....",
".......                   OOOOoooooooXXXXooooXXXXooooOOOXXXX....",
".......                   OOOOoooooooXXXXooooXXXXooooOOOXXXX....",
".......                   OOOOoooooooXXXXooooXXXXooooOOOoooo....",
".......                   OOOOoooooooXXXXooooXXXXooooOOOoooo....",
".......                   OOOOoooooooXXXXooooXXXXooooOOOoooo....",
".......                   OOOOoooooooXXXXooooXXXXooooOOOoooo....",
".......                   OOOOoooooooXXXXooooOOOOOOOOooooooo....",
".......                   OOOOoooooooXXXXooooOOOOOOOOooooooo....",
".......                   OOOOoooooooXXXXOOOOooooooooooooooo....",
".......                   OOOOoooooooXXXXOOOOooooooooooooooo....",
"..........................OOOOoooooooooooooooooooooooooooooo...."
};
