/* XPM */
static char *pixil_frame_01690633800[] = {
/* columns rows colors chars-per-pixel */
"64 64 3 1 ",
"  c #4A5462",
". c #6D758D",
"X c #8B93AF",
/* pixels */
"                                                                ",
"                                                                ",
"  ................  ..................................  ......  ",
"  ................  ..................................  ......  ",
"                                                                ",
"                                                                ",
"  ..  XXXXXXXXXXXXXXXXXXXXXXXXXXXXXX..  ..XXXXXXXXXXXXXXXXXXXX  ",
"  ..  XXXXXXXXXXXXXXXXXXXXXXXXXXXXXX..  ..XXXXXXXXXXXXXXXXXXXX  ",
"  ..  ................................  ......................  ",
"  ..  ................................  ......................  ",
"                                                                ",
"                                                                ",
"                                                                ",
"  XXXXXXXXXXXXXXXXXXXXXXXX..  ..XXXXXXXXXXXXXXXXXXXXXXXX..  ..  ",
"  XXXXXXXXXXXXXXXXXXXXXXXX..  ..XXXXXXXXXXXXXXXXXXXXXXXX..  ..  ",
"  ..........................  ............................  ..  ",
"  ..........................  ............................  ..  ",
"                                                                ",
"                                                                ",
"  XXXXXXXXXX..  ..XXXXXXXXXXXXXXXXXXXXXXXX..  ..XXXXXXXXXXXXXX  ",
"  XXXXXXXXXX..  ..XXXXXXXXXXXXXXXXXXXXXXXX..  ..XXXXXXXXXXXXXX  ",
"  ............  ............................  ................  ",
"  ............  ............................  ................  ",
"                                                                ",
"                                                                ",
"  XXXXXXXXXXXXXXXXXXXXXX....  XXXXXXXXXXXXXXXXXXXXXXXXXX..  ..  ",
"  XXXXXXXXXXXXXXXXXXXXXX....  XXXXXXXXXXXXXXXXXXXXXXXXXX..  ..  ",
"  ..........................  ............................  ..  ",
"  ..........................  ............................  ..  ",
"                                                                ",
"                                                                ",
"  XXXXXX..  ..XXXXXXXXXXXXXXXXXXXXXXXX  ..XXXXXXXXXXXXXXXXXXXX  ",
"  XXXXXX..  ..XXXXXXXXXXXXXXXXXXXXXXXX  ..XXXXXXXXXXXXXXXXXXXX  ",
"  ........  ..........................  ......................  ",
"  ........  ..........................  ......................  ",
"  ........  ..........................  ......................  ",
"                                                                ",
"                                                                ",
"  XXXXXXXXXXXXXXXX..  ..XXXXXXXXXXXXXXXXXXXXXX  ..............  ",
"  XXXXXXXXXXXXXXXX..  ..XXXXXXXXXXXXXXXXXXXXXX  ..............  ",
"  ..................  ........................  ..XXXXXXXXXXXX  ",
"  ..................  ........................  ..XXXXXXXXXXXX  ",
"                                                                ",
"                                                                ",
"  XX..  ..XXXXXXXXXXXXXXXXXXXXXX  ..XXXXXXXXXXXXXXXXXXXX  ..XX  ",
"  XX..  ..XXXXXXXXXXXXXXXXXXXXXX  ..XXXXXXXXXXXXXXXXXXXX  ..XX  ",
"  ....  ........................  ......................  ....  ",
"  ....  ........................  ......................  ....  ",
"                                                                ",
"                                                                ",
"  XXXXXXXXXXXXXXXXXXXX..  XXXXXXXXXXXXXXXXXX..  XXXXXXXXXXXXXX  ",
"  XXXXXXXXXXXXXXXXXXXX..  XXXXXXXXXXXXXXXXXX..  XXXXXXXXXXXXXX  ",
"  ......................  ....................  ..............  ",
"  ......................  ....................  ..............  ",
"                                                                ",
"                                                                ",
"                                                                ",
"    XXXXXXXXXXXXXXXXXXXXXX..  XXXXXXXXXXXXXXXXXX..  ..XXXXXXXX  ",
"    XXXXXXXXXXXXXXXXXXXXXX..  XXXXXXXXXXXXXXXXXX..  ..XXXXXXXX  ",
"    ........................  ....................  ..........  ",
"    ........................  ....................  ..........  ",
"                                                                ",
"                                                                ",
"  XXXXXX..  XXXXXXXXXXXXXXXXXXXXXXXX..  ..XXXXXXXXXXXXXXXXXXXX  "
};
