/* XPM */
static char *pixil_frame_0__4_1690635002[] = {
/* columns rows colors chars-per-pixel */
"64 64 6 1 ",
"  c #1F1A24",
". c #4A5462",
"X c #AFE06E",
"o c #6D758D",
"O c #21DB81",
"+ c #8B93AF",
/* pixels */
".......................                  .......................",
".......................                  .......................",
".ooooooooooooooooo..ooo                  ooooooooooooooo..oooooo",
".ooooooooooooooooo..ooo                  ooooooooooooooo..oooooo",
".                      XXXXXXXXXXXXXXXXXX         ..............",
".                      XXXXXXXXXXXXXXXXXX         ..............",
".                      XXXXXXXXXXXXXXXXXX         ++++++++++++++",
".                      XXXXXXXXXXXXXXXXXX         ++++++++++++++",
".    XXXXXXXXXXXXXXXXXXXXXXXXXXXXXXXXXXXXXXXXXXXXX     ooooooooo",
".    XXXXXXXXXXXXXXXXXXXXXXXXXXXXXXXXXXXXXXXXXXXXX     ooooooooo",
".    XXXXXXXXXXXXXXXXXXXXXXXXXXXXXXXXXXXXXXXXXXXXX     .........",
".....     XXXXXXXXXXXXX     XXXXXXXXX    XXXXXXXXXXXXXX    .....",
".++++     XXXXXXXXXXXXX     XXXXXXXXX    XXXXXXXXXXXXXX    o..oo",
".++++     XXXXXXXXXXXXX     XXXXXXXXX    XXXXXXXXXXXXXX    o..oo",
".oooo     XXXXXXXXXXXXX     XXXXXXXXX    XXXXXXXXXXXXXX    o..oo",
".oooo         XXXXX    XXXXXXXXX         XXXXXXXXXXXXXX    o..oo",
".....         XXXXX    XXXXXXXXX         XXXXXXXXXXXXXX    .....",
".....         XXXXX    XXXXXXXXX         XXXXXXXXXXXXXX    .....",
".....         XXXXX    XXXXXXXXX         XXXXXXXXXXXXXX    .....",
".                      XXXXX    XXXXXXXXX              XXXX     ",
".                      XXXXX    XXXXXXXXX              XXXX     ",
".                      XXXXX    XXXXXXXXX              XXXX     ",
".                      XXXXX    XXXXXXXXX              XXXX     ",
".    XXXXX    XXXXXXXXXXXXXXXXXXXXXXXXXXXXXXXXXXXX     XXXX     ",
".    XXXXX    XXXXXXXXXXXXXXXXXXXXXXXXXXXXXXXXXXXX     XXXX     ",
".    XXXXX    XXXXXXXXXXXXXXXXXXXXXXXXXXXXXXXXXXXX     XXXX     ",
".    XXXXX    XXXXXXXXXXXXXXXXXXXXXXXXXXXXXXXXXXXX     XXXX     ",
".    XXXXXOOOOXXXXXXXXX     XXXXXXXXX    XXXXXXXXXOOOOOXXXX     ",
".    XXXXXOOOOXXXXXXXXX     XXXXXXXXX    XXXXXXXXXOOOOOXXXX     ",
".    XXXXXOOOOXXXXXXXXX     XXXXXXXXX    XXXXXXXXXOOOOOXXXX     ",
".    XXXXXOOOOXXXXXXXXX     XXXXXXXXX    XXXXXXXXXOOOOOXXXX     ",
".++++         XXXXXXXXX     XXXXXXXXX    XXXXXXXXX         +++++",
".++++         XXXXXXXXX     XXXXXXXXX    XXXXXXXXX         +++++",
".oooo         XXXXXXXXX     XXXXXXXXX    XXXXXXXXX         ooooo",
".oooo              XXXXXXXXXXXXXXXXXXXXXXXXXXX             ooooo",
".....              XXXXXXXXXXXXXXXXXXXXXXXXXXX             .....",
".....              XXXXXXXXXXXXXXXXXXXXXXXXXXX             .....",
".++++              XXXXXXXXXXXXXXXXXXXXXXXXXXX             ooooo",
".    XXXXXXXXX                                    XXXXXXXXX     ",
".    XXXXXXXXX                                    XXXXXXXXX     ",
".    XXXXXXXXX                                    XXXXXXXXX     ",
".    XXXXXXXXX                                    XXXXXXXXX     ",
".    XXXXXXXXX     XXXX                  XXXXX    XXXXXXXXX     ",
".    XXXXXXXXX     XXXX                  XXXXX    XXXXXXXXX     ",
".    XXXXXXXXX     XXXX                  XXXXX    XXXXXXXXX     ",
".    XXXXXXXXX     XXXX                  XXXXX    XXXXXXXXX     ",
".oooo              XXXXXXXXX         XXXXXXXXX             .oooo",
".....              XXXXXXXXX         XXXXXXXXX             .....",
".....              XXXXXXXXX         XXXXXXXXX             .....",
".++++              XXXXXXXXX         XXXXXXXXX             +++++",
".+++++++++    OOOOO    XXXXXXXXXXXXXXXXXX     OOOO     +++++++++",
".+++++++++    OOOOO    XXXXXXXXXXXXXXXXXX     OOOO     +++++++++",
".ooooooooo    OOOOO    XXXXXXXXXXXXXXXXXX     OOOO     ooooooooo",
".ooooooooo    OOOOO    XXXXXXXXXXXXXXXXXX     OOOO     ooooooooo",
"..........    OOOOOOOOOOOOOO         OOOOOOOOOOOOO     .........",
"..........    OOOOOOOOOOOOOO         OOOOOOOOOOOOO     .........",
"...+++++++    OOOOOOOOOOOOOO         OOOOOOOOOOOOO     o++++++++",
"...+++++++++++              ..+++++++             o..ooo++++++++",
"...ooooooooooo              ..ooooooo             o..ooooooooooo",
"...ooooooooooo              ..ooooooo             o..ooooooooooo",
"..............              .........             ..............",
"..............              .........             ..............",
".++++++oo...++              +++++++++             ++++++++++++++",
".++++++oo...++              +++++++++             ++++++++++++++"
};
