/* XPM */
static char *pixil_frame_0__1_1690634649[] = {
/* columns rows colors chars-per-pixel */
"64 64 8 1 ",
"  c #2D1304",
". c #391E0B",
"X c #613D24",
"o c #C68642",
"O c #E0AC69",
"+ c #F1C27D",
"@ c #EAC086",
"# c #C0C0C0",
/* pixels */
"OOOOOOOOoo@@OOOOOoooooooooooOOOOOOOOOOOOOoooooooooooooOOOOOOOOOO",
"OOOOOOOOoo@@OOOOOoooooooooooOOOOOOOOOOOOOoooooooooooooOOOOOOOOOO",
"o##OOO##oo@@##OOOOOOOOOOOOOOOOOOOOOOOOOOOOOOOOOOOOOOOOOOOOOOO##O",
"o##OOO##oo@@##OOOOOOOOOOOOOOOOOOOOOOOOOOOOOOOOOOOOOOOOOOOOOOO##O",
"oOOOOOOOOO@@OOOOOOOOOOOOOOOOOOoooooooooooOOOOoooooooOOOOooOOOOOO",
"oOOOOOOOOO@@OOOOOOOOOOOOOOOOOOoooooooooooOOOOoooooooOOOOooOOOOOO",
"oOOOOOOOOO@@##OOOooooooOOOOOOOOOOOOOOOOOOOOOOOOOOOOOooooooOOO##O",
"oOOOOOOOOO@@##OOOooooooOOOOOOOOOOOOOOOOOOOOOOOOOOOOOooooooOOO##O",
"oOOOOOOOOO@@##OOOooooooOOOOOOOOOOOOOOOOOOOOOOOOOOOOOooooooOOO##O",
"OOOOOOOOOO@@OOOOOOOOOOOOOOOOOOOOoooooooooooooOOOOOOOOOOOOOOOOOOO",
"OOOOOOOOOO@@OOOOOOOOOOOOOOOOOOOOoooooooooooooOOOOOOOOOOOOOOOOOOO",
"OOOOOOOOoo@@@@@@@@@......................             @@@@@@@@@@",
"OOOOOOOOoo@@@@@@@@@......................             @@@@@@@@@@",
"OOOOOOOOoo@@OOoooOO@@XXXXXXX.............             OO##OOO##o",
"OOOOOOOOoo@@OOoooOO@@XXXXXXX.............             OO##OOO##o",
"OooOOOOOoo@@OOoooOOOO@@XXXXXXXXXXXXX..............    OOOOOOOOOo",
"OooOOOOOoo@@OOoooOOOO@@XXXXXXXXXXXXX..............    OOOOOOOOOo",
"OooOOOOOoo@@OOOOOOOOOOO@@XXXXXXXXXXXXXXXX...........  OOooOOOOOo",
"OooOOOOOoo@@OOOOOOOOOOO@@XXXXXXXXXXXXXXXX...........  OOooOOOOOo",
"OooOOOOOoo..@@OOOooOOOOoo@@@XXXXXXXXXXXXXXXXX.........OOooOOOOOO",
"OooOOOOOoo..@@OOOooOOOOoo@@@XXXXXXXXXXXXXXXXX.........OOooOOOOOO",
"OooOOOOOOO....@@@OOooOOOOoooooXXXXXXXXXXXXXXXXX.......OOOOOOOOOO",
"OooOOOOOOO....@@@OOooOOOOoooooXXXXXXXXXXXXXXXXX.......OOOOOOOOOO",
"OOOoooOOOO.......@@ooooOOOOOooooXXXXXXXXXXXXXXXXXX....OOOOoooOOO",
"OOOoooOOOO.......@@ooooOOOOOooooXXXXXXXXXXXXXXXXXX....OOOOoooOOO",
"OOOoooOOOO.......@@ooooOOOOOooooXXXXXXXXXXXXXXXXXX....OOOOoooOOO",
"OOOOOOOOOOXX.......@@OOOOOOOooOO@@XXXXXXXXXXXXXXXXXXXXOOOOoooOOO",
"OOOOOOOOOOXX.......@@OOOOOOOooOO@@XXXXXXXXXXXXXXXXXXXXOOOOoooOOO",
"OOOOOOOOOOXXXX.......@@OOOOOOOOOOO@@XXXXXXXXXXXXXXXXXXOOOOoooOOO",
"OOOOOOOOOOXXXX.......@@OOOOOOOOOOO@@XXXXXXXXXXXXXXXXXXOOOOoooOOO",
"OOOOOOooOOXXXXXXX......@@OOOOOooOOOO@@@XXXXXXXXXXXXXXXOOOOoooOOO",
"OOOOOOooOOXXXXXXX......@@OOOOOooOOOO@@@XXXXXXXXXXXXXXXOOOOoooOOO",
"OooOOOooOOXXXXXXXXX......@@@OOOOooOOOOO@@XXXXXXXXXXXXXOOOOoooOOO",
"OooOOOooOOXXXXXXXXX......@@@OOOOooOOOOO@@XXXXXXXXXXXXXOOOOoooOOO",
"OooOOOOOooXXXXXXXXXXX.......@@OOooOOOOOOO@@XXXXXXXXXXXOOOOOOOOOO",
"OooOOOOOooXXXXXXXXXXX.......@@OOooOOOOOOO@@XXXXXXXXXXXOOOOOOOOOO",
"oOOOOOOOooXXXXXXXXXXXXX.......@@OOoooooOOOO@@XXXXXXXXXooOOOOOOOO",
"oOOOOOOOooXXXXXXXXXXXXX.......@@OOoooooOOOO@@XXXXXXXXXooOOOOOOOO",
"OOOOOOOOooXXXXXXXXXXXXXXX.......@@OOOOOOOOOOO@@XXXXXXXooOOOOOooO",
"OOOOOOOOooXXXXXXXXXXXXXXX.......@@OOOOOOOOOOO@@XXXXXXXooOOOOOooO",
"OOOOOOOOooXXXXXXXXXXXXXXX.......@@OOOOOOOOOOO@@XXXXXXXooOOOOOooO",
"OOOOOOOOOOXXXXXXXXXXXXXXX.........@@OOOOOOOOOOO@@@XXXXOOooOOOooO",
"OOOOOOOOOOXXXXXXXXXXXXXXX.........@@OOOOOOOOOOO@@@XXXXOOooOOOooO",
"OooOOOOOOOXXXXXXXXXXXXXXXXXX........@@@OOOOooooOOO@@XXOOOOOOOOOo",
"OooOOOOOOOXXXXXXXXXXXXXXXXXX........@@@OOOOooooOOO@@XXOOOOOOOOOo",
"OooOOOOOOOXXXXXXXXXXXXXXXXXXXX.........@@OOOOOOoooOO@@OOOOOOOOOo",
"OooOOOOOOOXXXXXXXXXXXXXXXXXXXX.........@@OOOOOOoooOO@@OOOOOOOOOo",
"OOOOOOOOOOXXXXXXXXXXXXXXXXXXXXXX.........@@OOOOOOOOO@@OOooOOOOOO",
"OOOOOOOOOOXXXXXXXXXXXXXXXXXXXXXX.........@@OOOOOOOOO@@OOooOOOOOO",
"O##OOO##OOXXXXXXXXXXXXXXXXXXXXXXXX.........@@OOOOOOO@@OOooOOOOOO",
"O##OOO##OOXXXXXXXXXXXXXXXXXXXXXXXX.........@@OOOOOOO@@OOooOOOOOO",
"++++++++++XXXXXXXXXXXXXXXXXXXXXXXXXXXXX......@@@@@@@@@OOooOOOOOO",
"++++++++++XXXXXXXXXXXXXXXXXXXXXXXXXXXXX......@@@@@@@@@OOooOOOOOO",
"OOOOOOOOoooooooooOOOOOOOOOOOOOOOOOOOOOOOOOOOOOOOOOOO@@OOooOOOOOO",
"OOOOOOOOoooooooooOOOOOOOOOOOOOOOOOOOOOOOOOOOOOOOOOOO@@OOooOOOOOO",
"O##OOOOOOOOOOOOOOOOOOOOOOOOOoooooooooooooooOOOOOOO##@@OOOOOOOOOO",
"O##OOOOOOOOOOOOOOOOOOOOOOOOOoooooooooooooooOOOOOOO##@@OOOOOOOOOO",
"O##OOOOOOOOOOOOOOOOOOOOOOOOOoooooooooooooooOOOOOOO##@@OOOOOOOOOO",
"OOOOOOOOOOoooooooooooooooOOOOOOOOOOOOOOOOOOOOOOOOOoo@@ooOOOOOOOo",
"OOOOOOOOOOoooooooooooooooOOOOOOOOOOOOOOOOOOOOOOOOOoo@@ooOOOOOOOo",
"O##OOOOOOOOOOOOOOOOOOOOOOOOOOOOOOOOOOOOOOOOOOOOOOO##@@oo##OOO##o",
"O##OOOOOOOOOOOOOOOOOOOOOOOOOOOOOOOOOOOOOOOOOOOOOOO##@@oo##OOO##o",
"OOOoooooooOOOOOOOOOOOOOOOOOOoooooooooooooOOOOOOOOOOO@@ooOOOOOOOO",
"OOOoooooooOOOOOOOOOOOOOOOOOOoooooooooooooOOOOOOOOOOO@@ooOOOOOOOO"
};
